<?xml version="1.0" encoding="UTF-8"?>
<svg xmlns="http://www.w3.org/2000/svg" width="1800.78" height="178.77" viewBox="0 0 2004.78 578.77">
  <g id="Britive_Logo" data-name="Britive Logo" transform="translate(-13.76 -11.24)">
    <path id="Path_162" data-name="Path 162" d="M384.26,217.21c-20.67-21.18-43.72-37.31-68.98-48.05-25.25-10.76-52.64-16.1-81.79-16.09a218.858,218.858,0,0,0-47.64,5.08,198.645,198.645,0,0,0-43.92,15.29,210.593,210.593,0,0,0-54.02,38.22V23.24a11.984,11.984,0,0,0-12-12H25.76a11.984,11.984,0,0,0-12,12V395.36c0,18.74,3.87,38.25,10.89,57.42a220.613,220.613,0,0,0,30.17,55.4l9.63-7.17-9.63,7.17a174.243,174.243,0,0,0,38.85,37.77,239.388,239.388,0,0,0,43.5,24.25h0c29.59,12.98,61.36,19.46,94.89,19.45,29.37,0,56.94-5.29,82.36-15.98,25.43-10.67,48.63-26.7,69.43-47.76h0c20.81-21.05,36.63-44.53,47.16-70.23s15.77-53.57,15.76-83.25c0-30.13-5.18-58.36-15.64-84.34s-26.17-49.69-46.87-70.88ZM88.98,329.81a142.98,142.98,0,0,1,13.88-35.16h0a131.763,131.763,0,0,1,22.33-29.56,140.49,140.49,0,0,1,30.38-22.76,152.021,152.021,0,0,1,35.52-14.58,144.805,144.805,0,0,1,37.39-4.83,137.655,137.655,0,0,1,36.46,4.82,142.438,142.438,0,0,1,34.32,14.51A137.827,137.827,0,0,1,329,265.48a149.267,149.267,0,0,1,23.12,31.34h0a158.173,158.173,0,0,1,14.87,36.24,144.819,144.819,0,0,1,4.92,37.59,146.871,146.871,0,0,1-4.88,37.93,154.165,154.165,0,0,1-37.6,66.38,140.121,140.121,0,0,1-29.5,23.06h0a138.5,138.5,0,0,1-34.41,14.47,145.23,145.23,0,0,1-37.77,4.83c-20.33,0-38.73-3.55-55.57-10.54s-32.15-17.47-46.19-31.72h0a141.2,141.2,0,0,1-31.24-47.47c-6.91-17.51-10.44-36.87-10.44-58.36a162.179,162.179,0,0,1,4.66-39.4Z" fill="#e67e22"/>
    <path id="Path_163" data-name="Path 163" d="M698.83,176.88a74.813,74.813,0,0,0-15.54-6.56,129.342,129.342,0,0,0-23.76-4.61,190.76,190.76,0,0,0-20.1-1.03c-12.54.01-25.45,2.69-37.92,7.05a152.129,152.129,0,0,0-35.05,17.69,177.419,177.419,0,0,0-38.35,35.4c-16.09,20.01-27.54,43.21-34.93,68.57s-10.75,52.89-10.75,81.86V576.6a11.984,11.984,0,0,0,12,12H546a11.984,11.984,0,0,0,12-12V443.73c0-30.35.77-56.56,2.3-77.73.76-10.58,1.71-19.91,2.82-27.82a152.417,152.417,0,0,1,3.69-18.98c2.04-6.13,3.92-11.73,5.86-16.91a121.133,121.133,0,0,1,10.27-21.6,107.857,107.857,0,0,1,17.05-20.84,61.234,61.234,0,0,1,20.23-13.2,58.339,58.339,0,0,1,21.45-4.1,55.344,55.344,0,0,1,18.91,3.28,12.01,12.01,0,0,0,14.43-5.13l28.15-47.26a11.991,11.991,0,0,0-4.32-16.53Z" fill="#d35400"/>
    <path id="Path_164" data-name="Path 164" d="M804.01,50.93h0a43.782,43.782,0,0,0-31.56-12.99,44.536,44.536,0,0,0-31.54,76.09h0a44.6,44.6,0,0,0,48.68,9.9,46.708,46.708,0,0,0,24.32-24.32,43.912,43.912,0,0,0-9.9-48.68Z" fill="#a0522d"/>
    <path id="Path_165" data-name="Path 165" d="M1170.6,50.93h0a43.782,43.782,0,0,0-31.56-12.99,44.536,44.536,0,0,0-31.54,76.09h0a44.6,44.6,0,0,0,48.68,9.9,46.708,46.708,0,0,0,24.32-24.32,43.912,43.912,0,0,0-9.9-48.68Z" fill="#a0522d"/>
    <path id="Path_166" data-name="Path 166" d="M797.84,172.41h-50.5a11.984,11.984,0,0,0-12,12V577.3a11.984,11.984,0,0,0,12,12h50.5a11.984,11.984,0,0,0,12-12V184.41a11.984,11.984,0,0,0-12-12Z" fill="#e67e22"/>
    <path id="Path_167" data-name="Path 167" d="M1050.59,517.72a12,12,0,0,0-16.98-6.5,83.581,83.581,0,0,1-17.61,7.17,64.089,64.089,0,0,1-16.78,2.31,60.589,60.589,0,0,1-13.84-1.61,70.742,70.742,0,0,1-13.75-4.81,37.027,37.027,0,0,1-10.8-9.25,67.094,67.094,0,0,1-7.72-12.08,133.878,133.878,0,0,1-9.76-26.93,284.432,284.432,0,0,1-6.67-36.67V275.93h81.12a11.984,11.984,0,0,0,12-12V220.59a11.984,11.984,0,0,0-12-12H936.32V30.76a11.984,11.984,0,0,0-12-12H873.46a11.984,11.984,0,0,0-12,12V438.44q-.255,4.26-.26,8.49a143.3,143.3,0,0,0,5.44,39.12,160.6,160.6,0,0,0,16.16,37.49l.03.05a163.02,163.02,0,0,0,19.82,27.1,119.906,119.906,0,0,0,36.93,27.81,117.751,117.751,0,0,0,44.6,11.13h.25q2.28.09,4.59.09a161.873,161.873,0,0,0,33.64-3.77,248.4,248.4,0,0,0,36.67-11.05,12,12,0,0,0,6.84-15.72c-3.96-9.77-9.17-23.64-15.59-41.46Z" fill="#d35400"/>
    <path id="Path_168" data-name="Path 168" d="M1164.43,172.41h-50.5a11.984,11.984,0,0,0-12,12V577.3a11.984,11.984,0,0,0,12,12h50.5a11.984,11.984,0,0,0,12-12V184.41a11.984,11.984,0,0,0-12-12Z" fill="#e67e22"/>
    <path id="Path_169" data-name="Path 169" d="M1605.89,178.64a12,12,0,0,0-10.1-5.52h-54.08a12,12,0,0,0-10.92,7.02L1411.3,442.11l-120.49-262a11.978,11.978,0,0,0-10.9-6.99h-53.72a12.007,12.007,0,0,0-10.9,17.02l180.87,392.89a12.03,12.03,0,0,0,10.9,6.98h8.95a11.983,11.983,0,0,0,10.91-7.01l179.79-392.89a12,12,0,0,0-.81-11.48Z" fill="#a0522d"/>
    <path id="Path_170" data-name="Path 170" d="M1972.96,233.9l.01.01.01.01Z" fill="#e67e22"/>
    <path id="Path_171" data-name="Path 171" d="M1638.2,232.19l.02-.02.01-.02Z" fill="#e67e22"/>
    <path id="Path_172" data-name="Path 172" d="M2007.03,298.04a201.32,201.32,0,0,0-34.07-64.13c-21.04-26.69-45.91-47.06-74.36-60.6a201.583,201.583,0,0,0-45.18-15.21,240.3,240.3,0,0,0-49.97-5.03,235.364,235.364,0,0,0-48.89,4.92,192.662,192.662,0,0,0-64.25,26.07c-19.46,12.42-36.85,28.54-52.1,48.12a225.021,225.021,0,0,0-36.28,65.99,227.816,227.816,0,0,0-12.11,74.64,221.226,221.226,0,0,0,14.31,79.35c9.54,25.06,23.84,48.59,42.68,70.48h0a184.639,184.639,0,0,0,89.69,57.7q31.965,9.39,69.48,9.33c30.08,0,57.49-4.54,81.98-13.86h0a205.691,205.691,0,0,0,65.77-40.48c19.72-17.93,36.54-41.3,50.67-69.81a12.01,12.01,0,0,0-5.1-15.92l-42.26-22.56a12.018,12.018,0,0,0-15.93,4.4,336.542,336.542,0,0,1-21.65,32.16,144.405,144.405,0,0,1-19.08,20.82h0c-12.04,10.41-26.79,18.97-44.52,25.59a153.678,153.678,0,0,1-54.18,9.81c-19.25,0-36.58-3.38-52.38-10.03s-30.12-16.6-43.2-30.17h0a137.461,137.461,0,0,1-29.51-46.11,163.32,163.32,0,0,1-10.21-46.2h340.16a12,12,0,0,0,12-12.05q-.18-41.685-11.5-77.21Zm-294.38-38.46a131.472,131.472,0,0,1,41.75-25.61,139.368,139.368,0,0,1,49.42-8.55,144.645,144.645,0,0,1,61.9,13.74h0a143.8,143.8,0,0,1,26.54,15.86,116.085,116.085,0,0,1,20.38,19.8,121.194,121.194,0,0,1,15.46,25.72,178.793,178.793,0,0,1,7.42,19.43H1675.55a190.138,190.138,0,0,1,13.12-29.5c7.04-12.58,15.05-22.8,23.98-30.88Z" fill="#d35400"/>
    <path id="Path_173" data-name="Path 173" d="M125.91,382.28a53.363,53.363,0,0,0,6.08,24.7,52.988,52.988,0,0,0,46.98,27.3c.91,0,1.82-.02,2.74-.06,15.12-.61,28.18-6.21,39.41-15.97,9.6-8.34,16.53-18.64,22.75-29.29,6.36-10.91,13.58-20.92,23.73-28.18,5.7-4.07,11.62-6.34,18.27-6.34a30.546,30.546,0,0,1,5.61.53,31.358,31.358,0,0,1,18.63,10.76,30.752,30.752,0,0,1,7.02,19.67,33.379,33.379,0,0,1-1.04,8.19,30.514,30.514,0,0,1-11.37,17.11,31.285,31.285,0,0,1-18.6,6.14,30.544,30.544,0,0,1-8.85-1.3,30.1,30.1,0,0,1-12.93-7.34h0a12.078,12.078,0,0,0-2.87-2.16,7.873,7.873,0,0,0-3.68-.93,8.374,8.374,0,0,0-2.48.39,9.212,9.212,0,0,0-4.67,3.2,8.357,8.357,0,0,0-1.67,5.04,9.943,9.943,0,0,0,3.25,7.14,48.184,48.184,0,0,0,5.98,4.74,49.3,49.3,0,0,0,27.94,8.76,47.651,47.651,0,0,0,29.89-10.53,50,50,0,0,0,13.91-16.88,46.335,46.335,0,0,0,4.68-20.73,57.964,57.964,0,0,0-.45-7.13,46.078,46.078,0,0,0-7.54-20.42,51.138,51.138,0,0,0-15.97-14.85,45.391,45.391,0,0,0-24.09-6.68,57.067,57.067,0,0,0-8.96.73,44.35,44.35,0,0,0-15.51,5.62,70.651,70.651,0,0,0-12.79,9.81c-9.05,8.54-15.74,18.81-21.98,29.21-5.46,9.11-11.36,17.62-19.59,24.17a45.317,45.317,0,0,1-28.92,10.12c-.54,0-1.08,0-1.62-.03a34.514,34.514,0,0,1-13.91-3.29,36.777,36.777,0,0,1-11.57-8.83c-5.59-6.22-8.3-14.71-8.3-22.91a34.759,34.759,0,0,1,34.39-34.77,33.584,33.584,0,0,1,5.42.45,38.486,38.486,0,0,1,19.95,9.91,9.561,9.561,0,0,0,2.37,1.54,8.74,8.74,0,0,0,2.76.78c.32.03.63.05.94.05a7.967,7.967,0,0,0,4.59-1.41,9.995,9.995,0,0,0,3.09-3.6h0a7.662,7.662,0,0,0,.95-3.6,7.268,7.268,0,0,0-.79-3.23,10.416,10.416,0,0,0-1.86-2.58,45.608,45.608,0,0,0-15.08-10.72c-2.31-.99-4.62-1.95-6.93-2.91a32.183,32.183,0,0,1,8.38-11.98,43.784,43.784,0,0,1,12.68-8.21,37.479,37.479,0,0,1,14.39-2.82,45.183,45.183,0,0,1,6.15.44,40.492,40.492,0,0,1,13.46,4.29,41.078,41.078,0,0,1,11.02,8.67,21.376,21.376,0,0,1,2.3,3.21,44.3,44.3,0,0,0,2.52,3.78,10.427,10.427,0,0,0,3.25,2.81,8.89,8.89,0,0,0,4.25,1.09,8.226,8.226,0,0,0,1.1-.07,8.1,8.1,0,0,0,4.34-1.9,9.718,9.718,0,0,0,2.62-3.85h0a7.509,7.509,0,0,0,.52-2.74,8.384,8.384,0,0,0-.61-3.06,14.44,14.44,0,0,0-1.29-2.48,60.827,60.827,0,0,0-14.33-15.93,55.924,55.924,0,0,0-19.23-9.49,58.324,58.324,0,0,0-15.65-2.18,55.8,55.8,0,0,0-21.47,4.34c-9.9,4.1-18.5,10.38-24.58,19.5-3.11,4.66-5.59,9.61-8.46,14.71-.29.05-.62.09-.93.12a50.292,50.292,0,0,0-32.86,15.39,53.782,53.782,0,0,0-11.04,16.48,49.944,49.944,0,0,0-3.85,19.52v.94h0Z" fill="#8b4513"/>
  </g>
</svg>